HIERARCHY
ROOT Hips
{
	OFFSET 0.00000 0.00000 0.00000
	CHANNELS 6 Xposition Yposition Zposition Zrotation Yrotation Xrotation 
	JOINT LHipJoint
	{
		OFFSET 0 0 0
		CHANNELS 3 Zrotation Yrotation Xrotation
		JOINT LeftHip
		{
			OFFSET 1.26600 -1.82114 0.91038
			CHANNELS 3 Zrotation Yrotation Xrotation
			JOINT LeftKnee
			{
				OFFSET 2.50076 -6.87080 0.00000
				CHANNELS 3 Zrotation Yrotation Xrotation
				JOINT LeftAnkle
				{
					OFFSET 2.57364 -7.07102 0.00000
					CHANNELS 3 Zrotation Yrotation Xrotation
					JOINT LeftToe
					{
						OFFSET 0.13572 -0.37290 1.97004
						CHANNELS 3 Zrotation Yrotation Xrotation
						End Site
						{
							OFFSET 0.00000 -0.00000 1.01383
						}
					}
				}
			}
		}
	}
	JOINT RHipJoint
	{
		OFFSET 0 0 0
		CHANNELS 3 Zrotation Yrotation Xrotation
		JOINT RightHip
		{
			OFFSET -1.20803 -1.82114 0.91038
			CHANNELS 3 Zrotation Yrotation Xrotation
			JOINT RightKnee
			{
				OFFSET -2.54916 -7.00377 0.00000
				CHANNELS 3 Zrotation Yrotation Xrotation
				JOINT RightAnkle
				{
					OFFSET -2.56374 -7.04382 0.00000
					CHANNELS 3 Zrotation Yrotation Xrotation
					JOINT RightToe
					{
						OFFSET -0.23520 -0.64621 2.09921
						CHANNELS 3 Zrotation Yrotation Xrotation
						End Site
						{
							OFFSET -0.00000 -0.00000 1.10065
						}
					}
				}
			}
		}
	}
	JOINT lowerback
	{
		OFFSET 0 0 0
		CHANNELS 3 Zrotation Yrotation Xrotation
		JOINT Chest
		{
			OFFSET 0.05492 2.10797 -0.12074
			CHANNELS 3 Zrotation Yrotation Xrotation
			JOINT Chest2
			{
				OFFSET 0.04577 2.11592 -0.04483
				CHANNELS 3 Zrotation Yrotation Xrotation
				JOINT lowerneck
				{
					OFFSET 0 0 0
					CHANNELS 3 Zrotation Yrotation Xrotation
					JOINT Neck
					{
						OFFSET -0.10759 1.80167 0.15770
						CHANNELS 3 Zrotation Yrotation Xrotation
						JOINT Head
						{
							OFFSET 0.09237 1.77509 -0.40848
							CHANNELS 3 Zrotation Yrotation Xrotation
							End Site
							{
								OFFSET 0.03805 1.84093 -0.15754
							}
						}
					}
				}
				JOINT LeftCollar
				{
					OFFSET 0 0 0
					CHANNELS 3 Zrotation Yrotation Xrotation
					JOINT LeftShoulder
					{
						OFFSET 3.42372 1.09575 -0.28209
CHANNELS 3 Zrotation Xrotation Yrotation
						JOINT LeftElbow
						{
OFFSET 0 -4.956810 0.000000
CHANNELS 3 Zrotation Xrotation Yrotation
							JOINT LeftWrist
							{
OFFSET 0 -3.409150 0.000000
CHANNELS 3 Zrotation Xrotation Yrotation
								JOINT lhand
								{
									OFFSET 0 0 0
CHANNELS 3 Zrotation Xrotation Yrotation
									JOINT LFingers
									{
OFFSET 0 -0.616400 0.000000
CHANNELS 3 Zrotation Xrotation Yrotation
										End Site
										{
OFFSET 0 -0.496960 0.000000
										}
									}
								}
								JOINT LThumb
								{
OFFSET 0 0.000000 0.000000
CHANNELS 3 Zrotation Xrotation Yrotation
									End Site
									{
OFFSET 0 -0.504550 0.504550
									}
								}
							}
						}
					}
				}
				JOINT RightCollar
				{
					OFFSET 0 0 0
					CHANNELS 3 Zrotation Yrotation Xrotation
					JOINT RightShoulder
					{
						OFFSET -3.24731 1.15872 -0.32221
CHANNELS 3 Zrotation Xrotation Yrotation
						JOINT RightElbow
						{
OFFSET 0 -5.352000 0.000000
CHANNELS 3 Zrotation Xrotation Yrotation
							JOINT RightWrist
							{
OFFSET 0 -3.437210 -0.000000
CHANNELS 3 Zrotation Xrotation Yrotation
								JOINT rhand
								{
									OFFSET 0 0 0
CHANNELS 3 Zrotation Xrotation Yrotation
									JOINT RFingers
									{
OFFSET 0 -0.720090 0.000000
CHANNELS 3 Zrotation Xrotation Yrotation
										End Site
										{
OFFSET 0 -0.580560 0.000000
										}
									}
								}
								JOINT RThumb
								{
OFFSET 0 0.000000 0.000000
CHANNELS 3 Zrotation Xrotation Yrotation
									End Site
									{
OFFSET 0 -0.589420 0.589420
									}
								}
							}
						}
					}
				}
			}
		}
	}
}
MOTION
Frames: 4
Frame Time: 0.008333333333333333
-2.862100 23.502400 -0.027800 -126.490000 83.223600 -122.469000 0.000000 0.000000 0.000000 -13.974300 -7.646200 -15.664300 4.257800 12.495700 37.509000 -0.468500 -19.308200 -9.111500 6.763500 15.129400 47.973900 0.000000 0.000000 0.000000 27.540500 -0.057000 -15.035100 -3.766000 -11.842400 35.176700 -1.634600 7.045500 -22.914000 -1.721700 -8.260500 23.508200 4.280900 0.116100 2.164400 4.156000 0.282400 2.736700 1.875200 0.231800 1.598500 -10.793000 -3.830200 -4.676000 2.152400 -0.483200 45.594100 3.265400 -0.679700 18.014400 0.000000 0.000000 0.000000 -1.244700 2.277100 -20.993000 16.745200 -26.520700 3.972900 23.036600 7.822800 -18.101300 0.000000 0.000000 0.000000 -7.125000 0.000000 0.000000 -4.970500 49.470400 0.549100 0.000000 0.000000 0.000000 -7.084900 -1.248400 11.364500 -16.461100 -26.141800 -3.846900 -20.382600 -16.171700 -13.672300 0.000000 0.000000 0.000000 7.125000 0.000000 -0.000000 4.802000 15.466500 3.359500
-2.844743 23.479831 -0.051358 -127.075190 83.092560 -123.387489 0.000000 0.000000 0.000000 -14.111157 -7.771145 -15.520582 4.411377 12.688604 38.213653 0.496537 -17.597149 -16.622214 1.281399 7.005876 19.798116 0.000000 0.000000 0.000000 27.611275 -0.914751 -14.862497 -3.744193 -11.811950 35.070004 -1.606791 5.583336 -22.808164 -0.504777 -4.553178 12.638584 4.231410 0.091070 2.664804 4.197327 0.289786 2.708378 1.942102 0.231998 1.287917 -10.630981 -3.657445 -5.432465 2.221542 -0.364852 45.090374 3.262955 -0.613096 17.868684 0.000000 0.000000 0.000000 -1.514524 2.273785 -20.559696 16.752198 -26.529922 3.976017 22.939904 7.990911 -17.554801 0.000000 0.000000 0.000000 -7.125000 0.000000 0.000000 -4.932707 48.875445 0.472615 0.000000 0.000000 0.000000 -7.077529 -1.777670 11.184374 -15.524488 -24.871555 -3.443596 -20.683416 -14.638649 -13.514958 0.000000 0.000000 0.000000 7.125000 0.000000 0.000000 4.589528 15.602577 3.196346
-2.795785 23.459859 -0.106222 -126.115316 82.866664 -122.647606 0.000000 0.000000 0.000000 -14.119737 -8.113828 -15.151225 4.444330 12.729263 38.363354 0.765911 -15.814834 -17.909321 0.124904 2.222866 6.124260 0.000000 0.000000 0.000000 27.676078 -1.676428 -14.904985 -3.818614 -11.915056 35.432270 -1.735200 6.128555 -23.691907 -0.601006 -4.822278 13.429917 4.693069 0.342330 2.650544 4.037555 0.633143 2.617953 1.513624 0.409102 1.209365 -10.417830 -3.658480 -5.750656 2.745747 -0.738082 44.559111 3.388520 -0.668599 17.636324 0.000000 0.000000 0.000000 -1.478316 2.560681 -20.924279 16.862209 -26.675731 4.025295 22.544189 7.713097 -17.555595 0.000000 0.000000 0.000000 -7.125000 0.000000 0.000000 -5.315235 48.815439 0.501463 0.000000 0.000000 0.000000 -6.991669 -1.973073 10.685830 -14.556087 -23.523970 -3.046607 -19.750368 -12.936029 -13.376098 0.000000 0.000000 0.000000 7.125000 0.000000 0.000000 5.226110 15.839815 3.616428
-2.693020 23.410711 -0.176194 -119.615698 82.355003 -116.761912 0.000000 0.000000 0.000000 -13.572684 -9.042376 -13.811603 4.593069 12.910333 39.033618 0.879070 -16.354438 -18.967056 0.509503 4.575332 12.701214 0.000000 0.000000 0.000000 28.385782 -1.528084 -13.361890 -3.705322 -11.757637 34.879878 -1.769621 6.599939 -23.897292 -0.876352 -5.966723 16.688391 4.903540 0.470478 2.232744 4.632945 0.786449 2.728814 2.017462 0.499557 1.554966 -10.777156 -3.589124 -6.246176 2.599090 -0.474611 44.469043 3.423932 -0.644502 17.699617 0.000000 0.000000 0.000000 -2.315195 2.622515 -20.414727 16.726093 -26.495197 3.964393 22.151527 7.662146 -17.634896 0.000000 0.000000 0.000000 -7.125000 0.000000 0.000000 -5.713322 48.838906 0.542423 0.000000 0.000000 0.000000 -7.716192 -2.383415 11.037289 -13.618553 -22.186710 -2.682418 -20.267533 -12.568706 -13.425731 0.000000 0.000000 0.000000 7.125000 0.000000 0.000000 4.872083 15.737783 3.380374
